<svg xmlns="http://www.w3.org/2000/svg" width="2560" height="1440" viewBox="0 0 2560 1440" preserveAspectRatio="xMidYMid slice">
  <defs>
    <linearGradient id="sky" x1="0" y1="0" x2="0" y2="1">
      <stop offset="0%" stop-color="#d9dfdc"/>
      <stop offset="30%" stop-color="#c4d0d8"/>
      <stop offset="58%" stop-color="#7c9cb0"/>
      <stop offset="100%" stop-color="#314f5f"/>
    </linearGradient>
    <linearGradient id="ridgeA" x1="0" y1="0" x2="1" y2="0">
      <stop offset="0%" stop-color="#435c72"/>
      <stop offset="100%" stop-color="#24384e"/>
    </linearGradient>
    <linearGradient id="ridgeB" x1="0" y1="0" x2="1" y2="0">
      <stop offset="0%" stop-color="#324a60"/>
      <stop offset="100%" stop-color="#1b2d42"/>
    </linearGradient>
    <linearGradient id="vineMain" x1="0" y1="0" x2="1" y2="1">
      <stop offset="0%" stop-color="#6b6a2c"/>
      <stop offset="50%" stop-color="#4f5021"/>
      <stop offset="100%" stop-color="#2d3718"/>
    </linearGradient>
    <linearGradient id="slopeRight" x1="0" y1="0" x2="1" y2="1">
      <stop offset="0%" stop-color="#78853a"/>
      <stop offset="100%" stop-color="#32461f"/>
    </linearGradient>
    <linearGradient id="forest" x1="0" y1="0" x2="0" y2="1">
      <stop offset="0%" stop-color="#264225"/>
      <stop offset="100%" stop-color="#102214"/>
    </linearGradient>
    <radialGradient id="sunGlow" cx="20%" cy="32%" r="45%">
      <stop offset="0%" stop-color="#ffd68f" stop-opacity="0.5"/>
      <stop offset="100%" stop-color="#ffd68f" stop-opacity="0"/>
    </radialGradient>
    <linearGradient id="fog" x1="0" y1="0" x2="1" y2="0">
      <stop offset="0%" stop-color="#f2f0ea" stop-opacity="0"/>
      <stop offset="50%" stop-color="#f4f3ee" stop-opacity="0.9"/>
      <stop offset="100%" stop-color="#f2f0ea" stop-opacity="0"/>
    </linearGradient>
    <clipPath id="vineClip">
      <path d="M140 735 C510 640 880 600 1300 640 C1640 670 1900 760 2140 880 C2270 948 2360 1000 2460 1070 L2460 1260 L0 1260 L0 860 C60 810 100 772 140 735 Z"/>
    </clipPath>
  </defs>
  <rect width="2560" height="1440" fill="url(#sky)"/>
  <rect width="2560" height="1440" fill="url(#sunGlow)"/>
  <path d="M0 285 C250 240 620 210 980 250 C1330 288 1710 260 2060 215 C2240 192 2430 200 2560 216 L2560 470 L0 470 Z" fill="url(#ridgeA)" opacity="0.9"/>
  <path d="M0 360 C340 310 740 292 1120 332 C1470 366 1800 344 2140 302 C2290 285 2440 286 2560 300 L2560 560 L0 560 Z" fill="url(#ridgeB)" opacity="0.82"/>
  <ellipse cx="2080" cy="430" rx="630" ry="130" fill="url(#fog)" opacity="0.9"/>
  <ellipse cx="2240" cy="470" rx="420" ry="92" fill="#f2f0ea" opacity="0.45"/>
  <path d="M120 720 C470 630 860 590 1290 635 C1600 665 1880 760 2125 880 C2255 945 2350 1002 2460 1080 L2560 1210 L0 1210 L0 860 C50 812 92 766 120 720 Z" fill="url(#vineMain)"/>
  <path d="M1710 930 C1860 870 2050 905 2200 990 C2330 1062 2420 1165 2480 1300 L1750 1300 C1640 1180 1615 1010 1710 930 Z" fill="url(#slopeRight)" opacity="0.9"/>
  <g clip-path="url(#vineClip)" opacity="0.5">
    <path d="M0 840 C600 720 1280 730 2040 900" stroke="#b59b49" stroke-width="5" fill="none"/>
    <path d="M0 880 C610 760 1300 770 2060 938" stroke="#a98f44" stroke-width="5" fill="none"/>
    <path d="M0 920 C620 800 1320 808 2080 976" stroke="#a0863e" stroke-width="5" fill="none"/>
    <path d="M0 960 C630 838 1340 846 2100 1014" stroke="#967a38" stroke-width="5" fill="none"/>
    <path d="M0 1000 C640 876 1360 884 2120 1052" stroke="#8c7032" stroke-width="5" fill="none"/>
    <path d="M0 1040 C650 914 1380 922 2140 1090" stroke="#85692d" stroke-width="5" fill="none"/>
  </g>
  <path d="M0 1020 C220 930 470 915 720 965 C900 1000 1050 1070 1260 1110 C1520 1160 1730 1110 1940 1035 C2190 948 2370 980 2560 1080 L2560 1440 L0 1440 Z" fill="url(#forest)"/>
  <g fill="#223b22" opacity="0.95">
    <path d="M210 1115 l28 -86 l29 86 z"/>
    <path d="M290 1142 l34 -102 l36 102 z"/>
    <path d="M375 1128 l30 -92 l32 92 z"/>
    <path d="M470 1168 l38 -112 l40 112 z"/>
    <path d="M585 1175 l36 -105 l38 105 z"/>
    <path d="M710 1190 l40 -116 l42 116 z"/>
    <path d="M840 1206 l38 -112 l40 112 z"/>
    <path d="M960 1210 l36 -106 l37 106 z"/>
    <path d="M1080 1218 l36 -102 l37 102 z"/>
    <path d="M1240 1226 l40 -110 l42 110 z"/>
    <path d="M1410 1212 l36 -102 l38 102 z"/>
    <path d="M1590 1204 l34 -98 l36 98 z"/>
    <path d="M1770 1190 l32 -92 l34 92 z"/>
    <path d="M1940 1182 l30 -88 l32 88 z"/>
  </g>
  <rect y="0" width="2560" height="1440" fill="#000" opacity="0.14"/>
</svg>
