<svg xmlns="http://www.w3.org/2000/svg" width="2560" height="1440" viewBox="0 0 2560 1440" preserveAspectRatio="xMidYMid slice">
  <defs>
    <linearGradient id="bg" x1="0" y1="0" x2="0" y2="1">
      <stop offset="0%" stop-color="#94f0ff"/>
      <stop offset="45%" stop-color="#5fb9cf"/>
      <stop offset="100%" stop-color="#12314d"/>
    </linearGradient>
    <radialGradient id="mist" cx="50%" cy="35%" r="60%">
      <stop offset="0%" stop-color="#d8f9ff" stop-opacity="0.55"/>
      <stop offset="100%" stop-color="#d8f9ff" stop-opacity="0"/>
    </radialGradient>
  </defs>
  <rect width="2560" height="1440" fill="url(#bg)"/>
  <rect width="2560" height="1440" fill="url(#mist)"/>
  <path d="M0 910 C260 840 430 960 660 900 C880 845 960 720 1210 700 C1520 675 1620 860 1910 860 C2180 860 2330 760 2560 720 L2560 1440 L0 1440 Z" fill="#1b4b70" opacity="0.78"/>
  <path d="M0 1020 C250 930 500 1050 780 1000 C980 965 1110 860 1300 880 C1520 905 1700 1080 1970 1080 C2230 1080 2360 980 2560 940 L2560 1440 L0 1440 Z" fill="#153a59" opacity="0.88"/>
</svg>
